#!OML:ASF Y:\EmotionMaleHayes\Project 1\Capture day 1\Session 1\Male1.ASF
:FULLY-SPECIFIED
:DEGREES
193
root 42.6172 16.9058 -1.64608 480.829 81.3772 493.265
lowerback 12.9202 -0.124418 -11.2189
upperback 2.47652 -1.61115 -1.77856
thorax -4.34669 -0.592226 4.68988
lowerneck -25.5061 0.864682 0.143921
upperneck 23.0481 1.04873 0.675459
head 11.7705 0.608747 0.417142
rclavicle -2.13569e-014 -5.76476e-015
rhumerus -62.8428 4.38972 -73.4839
rradius 41.6511
rwrist -17.2042
rhand -18.3785 -35.6945
rfingers 7.12502
rthumb 7.90502 -65.5266
lclavicle -2.13569e-014 -5.76476e-015
lhumerus -14.6387 -32.572 79.0323
lradius 82.1075
lwrist 12.6561
lhand -24.3305 -29.7043
lfingers 7.12502
lthumb 2.15819 0.264527
rfemur -5.61487 0.463789 8.78056
rtibia 24.5097
rfoot -13.0897 -7.3959
rtoes 14.8047
lfemur 9.19874 2.16611 -25.4855
ltibia 24.1879
lfoot -17.3405 3.69678
ltoes 7.72511
194
root 42.7162 16.8693 -1.61612 481.947 81.6765 494.427
lowerback 12.9604 -0.0629762 -10.8384
upperback 2.51664 -1.47934 -1.70353
thorax -4.35666 -0.533881 4.5378
lowerneck -25.5215 0.830528 0.0723489
upperneck 22.8457 1.01746 0.698565
head 11.6951 0.589688 0.430544
rclavicle -6.80837e-015 -4.77083e-014
rhumerus -63.1081 4.03211 -72.9913
rradius 41.1108
rwrist -16.8758
rhand -18.2768 -35.9635
rfingers 7.12502
rthumb 8.00321 -65.7919
lclavicle -6.80837e-015 -4.77083e-014
lhumerus -14.2152 -32.2993 78.7346
lradius 82.0712
lwrist 12.1454
lhand -24.1938 -29.9105
lfingers 7.12502
lthumb 2.29018 0.056915
rfemur -4.92031 0.399326 9.35456
rtibia 24.0353
rfoot -11.4314 -7.98804
rtoes 17.0908
lfemur 9.36381 2.1926 -24.8343
ltibia 24.7142
lfoot -17.8558 3.49801
ltoes 6.10749
195
root 42.8218 16.8315 -1.60693 484.367 81.9086 496.92
lowerback 12.9487 -0.125699 -10.075
upperback 2.56671 -1.4559 -1.69416
thorax -4.32315 -0.536359 4.11759
lowerneck -25.3787 0.809328 -0.142189
upperneck 22.477 1.00148 0.927577
head 11.5247 0.592628 0.544449
rclavicle 1.75427e-014 1.98785e-014
rhumerus -63.4006 3.6198 -72.4752
rradius 40.7148
rwrist -16.465
rhand -18.0032 -36.4263
rfingers 7.12502
rthumb 8.26729 -66.2445
lclavicle 1.75427e-014 1.98785e-014
lhumerus -13.4737 -32.3381 78.308
lradius 81.7453
lwrist 12.0822
lhand -24.325 -29.8217
lfingers 7.12502
lthumb 2.16348 0.147045
rfemur -4.33425 -0.337717 9.73876
rtibia 24.0508
rfoot -12.492 -7.32989
rtoes 11.5365
lfemur 9.65004 1.99216 -24.382
ltibia 25.1902
lfoot -18.4289 3.37115
ltoes 4.45495
196
root 42.925 16.8024 -1.58049 481.599 81.1468 493.846
lowerback 12.646 -0.0504509 -10.8855
upperback 2.49074 -1.43603 -1.9539
thorax -4.2231 -0.51678 4.28452
lowerneck -25.1837 0.77937 -0.210139
upperneck 22.0867 1.00933 0.824625
head 11.3405 0.574257 0.514143
rclavicle 6.21202e-017 -1.82882e-014
rhumerus -63.549 3.22997 -72.0059
rradius 40.0937
rwrist -15.8744
rhand -18.0456 -36.4439
rfingers 7.12502
rthumb 8.2263 -66.2638
lclavicle 6.21202e-017 -1.82882e-014
lhumerus -13.6739 -31.9251 78.2829
lradius 81.9499
lwrist 11.7577
lhand -24.3654 -29.832
lfingers 7.12502
lthumb 2.12442 0.137182
rfemur -4.67222 -0.988432 8.64357
rtibia 24.8639
rfoot -12.984 -8.32821
rtoes 2.31254
lfemur 9.44427 1.76537 -25.4373
ltibia 25.7716
lfoot -18.9897 3.53417
ltoes 2.39177
197
root 43.0139 16.7698 -1.57011 482.513 81.1464 494.59
lowerback 12.6397 -0.0469257 -10.3992
upperback 2.44566 -1.37651 -2.06344
thorax -4.29397 -0.489187 3.88868
lowerneck -25.2835 0.634912 -0.222862
upperneck 21.7361 0.809551 0.804127
head 11.228 0.477359 0.472776
rclavicle -4.60932e-015 -3.06128e-014
rhumerus -63.5581 2.58398 -71.5007
rradius 39.2765
rwrist -14.9183
rhand -18.4565 -35.9644
rfingers 7.12502
rthumb 7.82976 -65.7994
lclavicle -4.60932e-015 -3.06128e-014
lhumerus -13.5113 -31.7862 78.1638
lradius 81.7858
lwrist 11.3755
lhand -24.4711 -29.9588
lfingers 7.12502
lthumb 2.02235 0.0113642
rfemur -5.19051 -1.72031 8.66417
rtibia 26.1549
rfoot -12.9704 -7.09768
rtoes 3.29021
lfemur 9.36591 1.45496 -25.4944
ltibia 26.3045
lfoot -19.5406 3.67313
ltoes 0.485912
198
root 43.102 16.7435 -1.53379 483.354 81.7971 495.325
lowerback 12.4674 0.121153 -9.76339
upperback 2.6246 -1.03086 -1.92425
thorax -4.06855 -0.343232 3.62537
lowerneck -25.7738 0.465142 -0.384999
upperneck 21.4078 0.613293 0.845622
head 11.1947 0.376311 0.481357
rclavicle -1.70458e-014 -3.73715e-014
rhumerus -63.2002 1.58237 -70.7537
rradius 38.5204
rwrist -13.6312
rhand -18.4453 -35.4914
rfingers 7.12502
rthumb 7.84059 -65.326
lclavicle -1.70458e-014 -3.73715e-014
lhumerus -12.9721 -31.6498 77.9818
lradius 81.4974
lwrist 10.9428
lhand -24.4619 -30.2082
lfingers 7.12502
lthumb 2.03129 -0.238106
rfemur -5.81177 -1.26909 9.634
rtibia 27.0794
rfoot -13.0535 -6.96911
rtoes 6.03708
lfemur 9.28713 1.441 -24.6078
ltibia 26.9144
lfoot -20.0827 3.6248
ltoes 0.248957
199
root 43.1782 16.7249 -1.51806 485.889 82.4531 497.729
lowerback 12.6347 0.102764 -8.77323
upperback 2.56151 -0.955707 -1.84006
thorax -4.25802 -0.311059 3.15287
lowerneck -25.6588 0.622121 -0.326821
upperneck 20.8017 0.764793 0.985579
head 10.9454 0.465632 0.543341
rclavicle -2.38542e-015 -6.55989e-014
rhumerus -62.9721 0.889162 -70.2357
rradius 37.7751
rwrist -12.3338
rhand -18.0428 -35.3392
rfingers 7.12502
rthumb 8.22907 -65.159
lclavicle -2.38542e-015 -6.55989e-014
lhumerus -13.1739 -31.2124 77.9824
lradius 81.2872
lwrist 10.4506
lhand -24.2556 -30.637
lfingers 7.12502
lthumb 2.23048 -0.668909
rfemur -6.38414 -1.49141 10.5794
rtibia 28.0482
rfoot -13.1832 -6.63807
rtoes 7.31286
lfemur 9.14388 1.32003 -23.7604
ltibia 27.5539
lfoot -20.4321 3.52761
ltoes 0.088719
200
root 43.2596 16.7199 -1.48556 486.623 83.0371 498.233
lowerback 12.5958 0.19943 -8.30062
upperback 2.48092 -0.77018 -1.72271
thorax -4.35097 -0.223091 2.98352
lowerneck -25.9351 0.6205 -0.0920266
upperneck 20.7163 0.765669 0.618239
head 10.9661 0.435007 0.371278
rclavicle 6.57853e-015 3.97569e-015
rhumerus -62.6741 0.359228 -69.7919
rradius 37.0148
rwrist -11.2177
rhand -17.5886 -35.3883
rfingers 7.12502
rthumb 8.66735 -65.1904
lclavicle 6.57853e-015 3.97569e-015
lhumerus -13.6642 -30.6401 78.2514
lradius 81.1397
lwrist 9.82993
lhand -24.4069 -30.5501
lfingers 7.12502
lthumb 2.08439 -0.580502
rfemur -7.01172 -1.29679 11.4015
rtibia 28.9705
rfoot -13.5294 -6.53085
rtoes 7.88501
lfemur 8.96255 1.3405 -23.015
ltibia 28.0384
lfoot -20.7223 3.53357
ltoes -0.686487
201
root 43.3453 16.7159 -1.4695 488.037 83.9301 499.575
lowerback 12.3062 0.24713 -7.32453
upperback 2.67964 -0.537159 -1.61353
thorax -4.01892 -0.136636 2.51357
lowerneck -26.1654 0.691619 0.0871478
upperneck 20.2822 0.804741 0.550497
head 10.8469 0.455503 0.322045
rclavicle -4.69629e-015 1.19271e-015
rhumerus -61.9007 -0.181999 -69.5044
rradius 36.0354
rwrist -10.0065
rhand -17.0245 -35.2233
rfingers 7.12502
rthumb 9.21168 -65.0021
lclavicle -4.69629e-015 1.19271e-015
lhumerus -13.9037 -29.9162 78.3304
lradius 80.9043
lwrist 9.23994
lhand -25.4525 -29.3536
lfingers 7.12502
lthumb 1.07449 0.623444
rfemur -7.23183 -1.23395 12.4831
rtibia 29.4695
rfoot -13.726 -6.16765
rtoes 7.24675
lfemur 9.17892 1.47174 -22.0313
ltibia 28.2215
lfoot -21.195 3.57444
ltoes -1.30877
